<svg xmlns="http://www.w3.org/2000/svg" viewBox="0 0 32 32">
  <path fill="currentColor" d="M16 7.3a8.7 8.7 0 1 0 0 17.4 8.7 8.7 0 0 0 0-17.4zm0 14.3a5.6 5.6 0 1 1 0-11.2 5.6 5.6 0 0 1 0 11.2z"/>
  <circle fill="currentColor" cx="24.6" cy="7.4" r="1.9"/>
  <path fill="currentColor" d="M22.9 2H9.1C5 2 2 5 2 9.1v13.8C2 27 5 30 9.1 30h13.8c4.1 0 7.1-3 7.1-7.1V9.1C30 5 27 2 22.9 2zm4.8 20.9c0 2.6-2.1 4.8-4.8 4.8H9.1c-2.6 0-4.8-2.1-4.8-4.8V9.1c0-2.6 2.1-4.8 4.8-4.8h13.8c2.6 0 4.8 2.1 4.8 4.8v13.8z"/>
</svg>