<svg xmlns="http://www.w3.org/2000/svg" viewBox="0 0 32 32">
  <path fill="currentColor" d="M16 .395C7.16.395.07 7.485.07 16.327c0 2.885.756 5.696 2.195 8.172L.016 32l7.73-2.202a15.88 15.88 0 0 0 8.253 2.308h.001c8.84 0 15.929-7.09 15.929-15.931C31.929 7.485 24.84.395 16 .395zm0 29.036h-.001a13.06 13.06 0 0 1-6.658-1.843l-.478-.283-4.59 1.307 1.227-4.49-.312-.46a12.9 12.9 0 0 1-2.024-6.996c0-7.182 5.842-13.025 13.025-13.025 3.478 0 6.747 1.354 9.204 3.811a12.92 12.92 0 0 1 3.821 9.214c0 7.183-5.843 13.025-13.038 13.025zm7.17-9.78c-.392-.196-2.317-1.142-2.677-1.271-.36-.132-.623-.197-.885.196-.263.392-1.017 1.271-1.248 1.534-.229.263-.459.296-.85.099-.392-.197-1.653-.61-3.15-1.945-1.164-1.038-1.951-2.317-2.18-2.709-.229-.392-.024-.604.173-.8.177-.176.392-.459.588-.688.196-.229.263-.392.392-.654.131-.263.066-.492-.033-.688-.099-.197-.885-2.137-1.213-2.926-.32-.768-.646-.662-.885-.675-.229-.012-.492-.015-.754-.015s-.688.098-1.05.49c-.36.392-1.376 1.345-1.376 3.277 0 1.932 1.408 3.797 1.604 4.059.197.263 2.77 4.231 6.717 5.932.94.406 1.674.649 2.244.831.941.299 1.797.257 2.473.156.754-.112 2.317-.947 2.644-1.861.327-.916.327-1.7.229-1.862-.098-.16-.36-.262-.754-.458z"/>
</svg>